<svg xmlns="http://www.w3.org/2000/svg" version="1.1" xmlns:xlink="http://www.w3.org/1999/xlink" xmlns:svgjs="http://svgjs.dev/svgjs" width="1000" height="1000" viewBox="0 0 1000 1000"><rect width="1000" height="1000" fill="#ffffff"></rect><g transform="matrix(0.7,0,0,0.7,149.57575757575756,282.1265587044535)"><svg viewBox="0 0 396 247" data-background-color="#0b022d" preserveAspectRatio="xMidYMid meet" height="623" width="1000" xmlns="http://www.w3.org/2000/svg" xmlns:xlink="http://www.w3.org/1999/xlink"><defs></defs><g id="tight-bounds" transform="matrix(1,0,0,1,0.2400000000000091,-0.09999999999999432)"><svg viewBox="0 0 395.52 247.2" height="247.2" width="395.52"><g><svg></svg></g><g><svg viewBox="0 0 395.52 247.2" height="247.2" width="395.52"><g transform="matrix(1,0,0,1,75.54432,105.27834157495624)"><svg viewBox="0 0 244.43135999999998 36.64331685008749" height="36.64331685008749" width="244.43135999999998"><g><svg viewBox="0 0 244.43135999999998 36.64331685008749" height="36.64331685008749" width="244.43135999999998"><g><svg viewBox="0 0 244.43135999999998 36.64331685008749" height="36.64331685008749" width="244.43135999999998"><g><svg viewBox="0 0 244.43135999999998 36.64331685008749" height="36.64331685008749" width="244.43135999999998"><g><svg viewBox="0 0 244.43135999999998 36.64331685008749" height="36.64331685008749" width="244.43135999999998"><g><svg viewBox="0 0 244.43135999999998 36.64331685008749" height="36.64331685008749" width="244.43135999999998"><g transform="matrix(1,0,0,1,0,0)"><svg width="244.43135999999998" viewBox="2.5 -37.75 259.42999267578125 38.54999923706055" height="36.64331685008749" data-palette-color="#f7fff7"><g class="undefined-text-0" data-fill-palette-color="primary" id="text-0"><path d="M2.5 0L2.5-3.3Q3.65-3.35 4.42-3.6 5.2-3.85 5.63-4.75 6.05-5.65 6.05-7.65L6.05-7.65 6.05-26.8Q6.05-28.15 6.13-29.4 6.2-30.65 6.25-31.3L6.25-31.3Q5.45-31.25 4.25-31.23 3.05-31.2 2.5-31.15L2.5-31.15 2.5-35Q6.05-35.05 9.6-35.05 13.15-35.05 16.7-35.1L16.7-35.1Q21.1-35.15 24.38-33.95 27.65-32.75 29.43-30.25 31.2-27.75 31.1-23.75L31.1-23.75Q31.05-21.75 30.15-19.83 29.25-17.9 27.5-16.32 25.75-14.75 23.1-13.75 20.45-12.75 16.9-12.65L16.9-12.65Q15.8-12.6 14.98-12.6 14.15-12.6 13.3-12.65L13.3-12.65 13.3-8.25Q13.3-6.85 13.25-5.6 13.2-4.35 13.1-3.7L13.1-3.7Q13.65-3.75 14.5-3.78 15.35-3.8 16.18-3.83 17-3.85 17.35-3.85L17.35-3.85 17.35 0 2.5 0ZM13.3-27.65L13.3-16.4Q13.85-16.35 14.4-16.3 14.95-16.25 15.55-16.25L15.55-16.25Q18.3-16.25 20.03-17.18 21.75-18.1 22.55-19.88 23.35-21.65 23.35-24.2L23.35-24.2Q23.35-26.7 22.68-28.2 22-29.7 20.95-30.43 19.9-31.15 18.75-31.38 17.6-31.6 16.65-31.6L16.65-31.6Q15.6-31.6 14.85-31.35 14.1-31.1 13.7-30.25 13.3-29.4 13.3-27.65L13.3-27.65ZM46.25 0.8L46.25 0.8Q42.65 0.8 39.75-0.75 36.85-2.3 35.17-5.18 33.5-8.05 33.5-11.95L33.5-11.95Q33.5-16.1 35.22-19.23 36.95-22.35 39.82-24.08 42.7-25.8 46.1-25.8L46.1-25.8Q49.7-25.8 52.55-24.25 55.4-22.7 57.05-19.83 58.7-16.95 58.7-12.95L58.7-12.95Q58.7-8.75 57.1-5.65 55.5-2.55 52.7-0.88 49.9 0.8 46.25 0.8ZM46.45-2.75L46.45-2.75Q48.45-2.8 49.47-4.15 50.5-5.5 50.9-7.55 51.3-9.6 51.3-11.7L51.3-11.7Q51.3-13.55 51.02-15.45 50.75-17.35 50.15-18.9 49.55-20.45 48.52-21.4 47.5-22.35 46-22.3L46-22.3Q44.05-22.25 42.92-20.9 41.8-19.55 41.32-17.53 40.85-15.5 40.85-13.3L40.85-13.3Q40.85-10.75 41.4-8.3 41.95-5.85 43.17-4.28 44.4-2.7 46.45-2.75ZM74.09 0.8L74.09 0.8Q70.75 0.8 67.95-0.7 65.15-2.2 63.47-5.05 61.8-7.9 61.8-11.95L61.8-11.95Q61.8-14.8 62.75-17.3 63.7-19.8 65.42-21.7 67.15-23.6 69.52-24.7 71.9-25.8 74.8-25.8L74.8-25.8Q78-25.8 80.12-24.83 82.25-23.85 83.32-22.28 84.4-20.7 84.4-18.95L84.4-18.95Q84.4-17.5 83.52-16.38 82.65-15.25 81.05-15.2L81.05-15.2Q79.15-15.15 78.4-16.28 77.65-17.4 77.65-18.45L77.65-18.45Q77.65-18.9 77.8-19.53 77.95-20.15 78.25-20.65L78.25-20.65Q77.9-21.4 77.2-21.75 76.5-22.1 75.77-22.23 75.05-22.35 74.59-22.3L74.59-22.3Q72.2-22.15 70.65-19.9 69.09-17.65 69.09-13.4L69.09-13.4Q69.09-10.9 69.72-8.72 70.34-6.55 71.8-5.15 73.25-3.75 75.7-3.65L75.7-3.65Q77.8-3.6 79.8-4.65 81.8-5.7 83.2-7.5L83.2-7.5 85.5-5.25Q83.7-2.75 81.75-1.45 79.8-0.15 77.87 0.33 75.95 0.8 74.09 0.8ZM100.54 0L87.39 0 87.39-3.25Q88.79-3.25 89.42-3.8 90.04-4.35 90.22-5.38 90.39-6.4 90.39-7.7L90.39-7.7 90.39-28.25Q90.39-29.15 90.44-30.33 90.49-31.5 90.59-32.6L90.59-32.6Q89.79-32.55 88.72-32.52 87.64-32.5 87.09-32.45L87.09-32.45 87.09-36.25Q89.39-36.25 90.97-36.5 92.54-36.75 93.49-37.1 94.44-37.45 94.74-37.75L94.74-37.75 97.49-37.75 97.49-14.95 99.89-14.95 103.49-19.1Q104.14-19.8 104.57-20.3 104.99-20.8 105.44-21.2L105.44-21.2 102.79-21.2 102.79-25 114.04-25 114.04-21.8Q112.29-21.6 110.94-20.98 109.59-20.35 108.62-19.5 107.64-18.65 106.94-17.85L106.94-17.85 103.74-14.25Q104.49-13.9 105.22-13.23 105.94-12.55 106.99-11.15L106.99-11.15 110.34-6.75Q110.64-6.4 111.12-5.8 111.59-5.2 112.19-4.63 112.79-4.05 113.49-3.65 114.19-3.25 114.94-3.25L114.94-3.25 114.94 0 109.19 0Q107.59 0 106.39-1.13 105.19-2.25 103.64-4.35L103.64-4.35Q102.74-5.55 101.77-6.93 100.79-8.3 99.97-9.53 99.14-10.75 98.64-11.45L98.64-11.45 97.49-11.4 97.49-8.05Q97.49-7.35 97.44-6.08 97.39-4.8 97.29-3.65L97.29-3.65Q98.09-3.75 99.04-3.78 99.99-3.8 100.54-3.8L100.54-3.8 100.54 0ZM129.74 0.8L129.74 0.8Q126.09 0.8 123.29-0.83 120.49-2.45 118.94-5.43 117.39-8.4 117.39-12.45L117.39-12.45Q117.39-15.95 118.94-19 120.49-22.05 123.32-23.93 126.14-25.8 129.89-25.8L129.89-25.8Q131.99-25.8 133.99-25.23 135.99-24.65 137.62-23.25 139.24-21.85 140.22-19.45 141.19-17.05 141.14-13.45L141.14-13.45 124.74-13.15Q124.74-10.45 125.42-8.3 126.09-6.15 127.64-4.9 129.19-3.65 131.79-3.65L131.79-3.65Q132.79-3.65 134.07-4 135.34-4.35 136.67-5.18 137.99-6 139.14-7.4L139.14-7.4 141.39-5.3Q139.59-2.75 137.54-1.43 135.49-0.1 133.47 0.35 131.44 0.8 129.74 0.8ZM125.04-16.65L125.04-16.65 134.24-16.65Q134.19-18.75 133.67-19.98 133.14-21.2 132.24-21.75 131.34-22.3 130.14-22.3L130.14-22.3Q127.94-22.3 126.69-20.73 125.44-19.15 125.04-16.65ZM154.69 0.8L154.69 0.8Q153.19 0.8 151.81 0.45 150.44 0.1 149.31-0.88 148.19-1.85 147.54-3.75 146.89-5.65 146.89-8.8L146.89-8.8 146.99-20.85 143.59-20.85 143.59-25Q145.14-25.05 146.59-26.05 148.04-27.05 149.06-28.65 150.09-30.25 150.44-32L150.44-32 154.14-32 154.09-25 160.44-25 160.44-21.15 154.09-21 154.04-8.7Q154.04-7.55 154.26-6.43 154.49-5.3 155.14-4.58 155.79-3.85 157.04-3.85L157.04-3.85Q157.74-3.85 158.96-4.35 160.19-4.85 161.59-6.85L161.59-6.85 163.99-4.6Q162.64-2.6 161.19-1.5 159.74-0.4 158.41 0.1 157.09 0.6 156.09 0.7 155.09 0.8 154.69 0.8ZM165.89 0L165.89-3.3Q167.04-3.35 167.81-3.6 168.59-3.85 169.01-4.75 169.44-5.65 169.44-7.65L169.44-7.65 169.44-26.8Q169.44-28.15 169.51-29.4 169.59-30.65 169.64-31.3L169.64-31.3Q168.84-31.25 167.64-31.23 166.44-31.2 165.89-31.15L165.89-31.15 165.89-35Q169.44-35.05 172.99-35.05 176.54-35.05 180.09-35.1L180.09-35.1Q184.49-35.15 187.76-33.95 191.04-32.75 192.81-30.25 194.59-27.75 194.49-23.75L194.49-23.75Q194.44-21.75 193.54-19.83 192.64-17.9 190.89-16.32 189.14-14.75 186.49-13.75 183.84-12.75 180.29-12.65L180.29-12.65Q179.19-12.6 178.36-12.6 177.54-12.6 176.69-12.65L176.69-12.65 176.69-8.25Q176.69-6.85 176.64-5.6 176.59-4.35 176.49-3.7L176.49-3.7Q177.04-3.75 177.89-3.78 178.74-3.8 179.56-3.83 180.39-3.85 180.74-3.85L180.74-3.85 180.74 0 165.89 0ZM176.69-27.65L176.69-16.4Q177.24-16.35 177.79-16.3 178.34-16.25 178.94-16.25L178.94-16.25Q181.69-16.25 183.41-17.18 185.14-18.1 185.94-19.88 186.74-21.65 186.74-24.2L186.74-24.2Q186.74-26.7 186.06-28.2 185.39-29.7 184.34-30.43 183.29-31.15 182.14-31.38 180.99-31.6 180.04-31.6L180.04-31.6Q178.99-31.6 178.24-31.35 177.49-31.1 177.09-30.25 176.69-29.4 176.69-27.65L176.69-27.65ZM214.48 0.8L214.48 0.8Q209.73 0.8 206.41-0.8 203.08-2.4 201.03-5.08 198.98-7.75 198.03-11 197.08-14.25 197.08-17.5L197.08-17.5Q197.08-20.65 198.16-23.88 199.23-27.1 201.41-29.8 203.58-32.5 206.88-34.15 210.18-35.8 214.63-35.8L214.63-35.8Q219.18-35.8 222.48-34.15 225.78-32.5 227.88-29.78 229.98-27.05 231.01-23.85 232.03-20.65 232.03-17.5L232.03-17.5Q232.03-14.4 230.96-11.2 229.88-8 227.71-5.28 225.53-2.55 222.23-0.88 218.93 0.8 214.48 0.8ZM215.03-2.85L215.03-2.85Q217.63-2.85 219.38-4.13 221.13-5.4 222.18-7.45 223.23-9.5 223.68-11.93 224.13-14.35 224.13-16.65L224.13-16.65Q224.13-20.1 223.53-22.95 222.93-25.8 221.68-27.88 220.43-29.95 218.51-31.08 216.58-32.2 213.98-32.15L213.98-32.15Q211.43-32.1 209.68-30.78 207.93-29.45 206.88-27.38 205.83-25.3 205.38-22.85 204.93-20.4 204.93-18.1L204.93-18.1Q204.93-15.75 205.46-13.1 205.98-10.45 207.13-8.1 208.28-5.75 210.23-4.3 212.18-2.85 215.03-2.85ZM259.78-23.8L256.48-23.8Q256.03-26.6 254.88-28.48 253.73-30.35 251.96-31.3 250.18-32.25 247.83-32.2L247.83-32.2Q245.68-32.2 244.06-31 242.43-29.8 242.43-27.9L242.43-27.9Q242.43-26.35 243.31-25.2 244.18-24.05 245.98-23.05 247.78-22.05 250.53-20.9L250.53-20.9Q252.43-20.15 254.43-19.15 256.43-18.15 258.13-16.78 259.83-15.4 260.88-13.58 261.93-11.75 261.93-9.3L261.93-9.3Q261.93-6.35 260.33-4.05 258.73-1.75 255.86-0.48 252.98 0.8 249.13 0.8L249.13 0.8Q247.13 0.8 244.81 0.18 242.48-0.45 240.43-1.65L240.43-1.65 240.58 0.45 236.73 0.45 236.73-11.25 240.03-11.25Q240.73-7.05 243.26-4.93 245.78-2.8 249.28-2.8L249.28-2.8Q251.08-2.8 252.43-3.45 253.78-4.1 254.53-5.18 255.28-6.25 255.28-7.5L255.28-7.5Q255.28-9.25 254.06-10.4 252.83-11.55 251.01-12.35 249.18-13.15 247.28-13.9L247.28-13.9Q244.88-14.9 242.81-16.03 240.73-17.15 239.18-18.6 237.63-20.05 236.78-21.93 235.93-23.8 235.93-26.25L235.93-26.25Q235.93-27.8 236.53-29.48 237.13-31.15 238.48-32.58 239.83-34 242.08-34.9 244.33-35.8 247.63-35.8L247.63-35.8Q249.63-35.8 252.01-35.2 254.38-34.6 256.08-33.4L256.08-33.4 255.88-35.45 259.78-35.45 259.78-23.8Z" fill="#000000" data-fill-palette-color="primary"></path></g></svg></g></svg></g></svg></g></svg></g></svg></g></svg></g></svg></g><path d="M214.551 99.278L214.551 36.343 389.065 36.343 389.065 210.857 214.551 210.857 214.551 147.922 217.855 147.922 217.855 207.552 385.76 207.552 385.76 39.648 217.855 39.648 217.855 99.278Z" fill="#000000" stroke="transparent" data-fill-palette-color="primary"></path></svg></g></svg><rect width="395.52" height="247.2" fill="none" stroke="none" visibility="hidden"></rect></g></svg></g></svg>